<?xml version="1.0" encoding="UTF-8"?>
<!DOCTYPE svg PUBLIC "-//W3C//DTD SVG 1.1//EN" "http://www.w3.org/Graphics/SVG/1.1/DTD/svg11.dtd">
<!-- Creator: CorelDRAW 2019 (64-Bit) -->
<svg xmlns="http://www.w3.org/2000/svg" xml:space="preserve" width="175.641mm" height="115.852mm" version="1.1" style="shape-rendering:geometricPrecision; text-rendering:geometricPrecision; image-rendering:optimizeQuality; fill-rule:evenodd; clip-rule:evenodd"
viewBox="0 0 175.9517 116.0572"
 xmlns:xlink="http://www.w3.org/1999/xlink"
 xmlns:xodm="http://www.corel.com/coreldraw/odm/2003">
 <defs>
  <style type="text/css">
   <![CDATA[
    .fil0 {fill:#C70D0C}
    .fil1 {fill:#FEFEFE}
   ]]>
  </style>
 </defs>
 <g id="Layer_x0020_1">
  <metadata id="CorelCorpID_0Corel-Layer"/>
  <g id="_961343136">
   <polygon class="fil0" points="125.6129,78.6531 128.8786,70.6379 132.2286,62.4108 135.7909,54.0988 139.4382,45.7019 143.2123,37.2624 145.121,33.0643 147.0294,28.8659 148.9801,24.7099 150.973,20.5963 152.9662,16.4827 154.9594,12.4111 155.5531,11.1814 156.1895,9.9091 156.6981,8.8913 157.2497,7.9159 157.8435,6.9829 158.1827,6.5164 158.522,6.0924 159.0732,5.4986 159.667,4.9473 160.006,4.6929 160.3455,4.4384 160.7272,4.2264 161.1088,4.0143 162.5081,3.5902 163.9078,3.1237 165.2649,2.5724 166.6643,2.0635 168.4031,1.3853 169.251,1.0881 170.1416,0.7913 170.3539,0.7064 170.9051,0.4948 171.4986,0.3252 172.0926,0.24 172.7285,0.24 173.3222,0.2824 173.8735,0.4096 174.4251,0.5792 174.6792,0.7064 174.8916,0.8337 175.1034,1.0034 175.2733,1.173 175.4425,1.3426 175.6122,1.5123 175.697,1.7667 175.8245,1.9787 175.9091,2.2331 175.9517,2.4876 175.8669,3.4206 175.7818,4.3539 175.6122,5.2865 175.4425,6.2196 175.0609,8.0431 174.6368,9.9091 174.34,11.1814 173.4073,15.2952 172.6012,18.9847 171.7957,22.5895 170.1416,30.5198 163.102,65.4217 155.8499,101.4266 155.0445,105.3707 154.5353,107.9572 153.8143,111.6044 153.3479,114.2761 153.2634,114.5308 153.1782,114.7425 153.0935,114.9546 152.9241,115.1667 152.7965,115.3363 152.6272,115.4635 152.4149,115.591 152.2456,115.7178 151.8639,115.8875 151.4397,115.9727 151.0579,116.0148 150.6337,116.0148 150.21,115.9303 149.7856,115.8028 149.3618,115.6331 149.0225,115.3786 148.6833,115.0817 148.3864,114.7001 147.538,113.7247 146.6477,112.7497 145.7144,111.8163 144.7393,110.9684 144.0183,110.3744 143.2972,109.7806 142.5338,109.2298 141.7283,108.7205 141.3888,108.4237 141.1343,108.0843 140.8801,107.7029 140.6678,107.3211 140.4984,106.9394 140.371,106.5154 140.3285,106.0912 140.2861,105.6675 140.2861,105.0734 140.4134,104.4797 140.4984,103.547 140.583,102.6139 140.7527,101.6807 140.8801,100.6629 141.2618,98.161 143.3398,86.4987 146.1388,71.062 148.7253,56.6433 149.7434,51.2998 150.3369,48.0345 152.2876,38.3226 153.2634,33.4884 154.2812,28.6538 154.2385,28.7387 150.6762,36.2449 147.1563,43.7936 143.7639,51.4271 140.4134,59.0604 137.1479,66.7364 133.9252,74.4123 130.8291,82.173 127.7759,89.9338 124.7647,97.6943 124.5103,98.373 124.2134,99.0515 123.7469,100.4509 123.2383,101.8504 122.9836,102.5293 122.6867,103.1651 122.2626,104.0132 121.7964,104.819 121.5841,104.989 121.372,105.1584 121.1179,105.2854 120.8631,105.4127 120.3969,105.5399 119.9302,105.5399 119.4637,105.4975 119.0396,105.3283 118.6579,105.1158 118.3186,104.8614 118.0218,104.5223 117.7674,104.0981 117.2585,103.3348 116.7072,102.5293 116.1137,101.8084 115.5197,101.0874 115.0959,100.5782 114.6291,100.1118 114.1627,99.6879 113.654,99.2636 113.1449,98.7122 112.6784,98.161 112.2545,97.5675 111.8302,96.9311 111.491,96.295 111.1943,95.6589 110.8975,94.9804 110.6428,94.3017 110.3883,93.4535 110.1762,92.5629 110.0066,91.6725 109.8794,90.7819 109.7949,89.8914 109.7525,88.9583 109.7525,87.1348 109.7098,85.1415 109.7098,81.1976 109.7525,79.2044 109.7949,77.2112 109.9221,75.2181 110.1342,71.2737 110.4307,67.2874 110.8127,63.3437 111.1943,59.357 111.576,55.4135 112.0846,50.579 112.5511,45.744 112.9331,40.9099 113.1027,38.4926 113.2296,36.0753 113.4417,33.1915 113.0179,34.3789 112.4663,36.2022 110.77,41.4611 108.6072,48.5009 106.0203,56.7705 100.3802,74.9635 95.1637,91.9692 90.7112,106.4308 90.3719,107.2787 89.9902,108.0843 89.6931,108.6781 89.3539,109.2298 88.9724,109.7383 88.5057,110.2474 88.3361,110.4168 88.124,110.5865 87.9122,110.7138 87.6999,110.8409 87.2335,111.011 86.7673,111.0955 86.0888,111.0955 85.7495,111.0529 85.4524,110.9259 85.1131,110.7985 84.8162,110.6716 84.5618,110.4593 84.3076,110.2474 84.0529,109.9507 83.7984,109.6114 83.629,109.2298 83.5016,108.8481 83.4591,108.3814 83.4591,107.5332 83.5016,107.0668 83.629,106.2186 83.7984,105.3283 83.9257,104.819 84.2225,103.8861 84.9858,101.384 87.7423,92.6058 96.3939,65.0825 105.8933,34.9303 109.7098,22.844 112.2121,14.8284 112.6784,13.5138 113.1027,12.1992 113.4844,10.9693 113.6965,10.3755 113.9506,9.8243 114.1202,9.3577 114.375,8.8913 114.5867,8.4672 114.8836,8.0431 115.1805,7.6614 115.52,7.2798 115.9017,6.8981 116.3255,6.5588 116.9618,6.1771 117.6825,5.7954 118.3611,5.4562 119.0823,5.1593 119.803,4.9049 120.5241,4.608 122.0081,4.0991 123.1108,3.7175 124.2134,3.2934 125.2736,2.8269 126.3338,2.318 126.4189,2.2756 127.5213,1.8939 128.4542,1.6395 128.921,1.5123 129.3875,1.4274 129.8537,1.3853 130.2781,1.3426 130.7446,1.3853 131.1683,1.4274 131.4653,1.5123 131.7199,1.6395 131.9742,1.7667 132.2286,1.8939 132.3985,2.0635 132.5681,2.2331 132.7377,2.4028 132.8649,2.6152 133.0343,3.039 133.1619,3.5479 133.2466,4.0991 133.2466,5.2442 133.2039,5.7954 133.2039,6.3043 133.1194,7.9583 133.0343,9.5698 132.9071,11.2237 132.7377,12.8356 132.3985,16.101 132.0168,19.3664 131.5079,23.6497 130.9566,27.9325 130.3629,32.1734 129.7689,36.457 129.1754,40.7402 128.5815,45.0234 128.0302,49.2642 127.4791,53.5475 127.0124,57.8308 126.7158,60.4172 126.461,63.0469 126.249,65.6338 126.0793,68.2206 125.9097,70.85 125.7825,73.4368 125.698,76.0662 "/>
   <polygon class="fil0" points="31.9758,49.7731 34.4778,49.2642 40.7965,47.992 47.1153,46.7622 49.66,46.2533 51.4837,45.9564 52.1622,44.1752 53.0104,42.0124 55.0883,36.8811 57.5056,31.0287 60.0501,24.8371 64.7571,13.4714 66.5383,9.1881 67.7259,6.4743 68.0226,5.8379 68.3619,5.2442 68.6163,4.9897 68.8286,4.6929 69.0827,4.4808 69.3372,4.2264 69.6341,4.0143 69.9736,3.8447 70.3129,3.6751 70.6943,3.5479 71.7124,3.3358 72.7302,3.039 74.0021,2.6573 75.2747,2.1908 75.826,1.9787 76.971,1.5549 78.1582,1.1306 79.3459,0.7064 79.7276,0.5792 80.4061,0.3672 81.127,0.1975 81.4662,0.1131 81.7628,0.0279 81.9866,0 82.5568,0 82.7806,0.0279 83.0775,0.1131 83.4168,0.24 83.6715,0.3672 83.8833,0.5368 84.0956,0.7064 84.265,0.9609 84.3924,1.2153 84.5194,1.7667 84.5194,2.8693 84.4346,3.3358 84.35,3.8447 84.2225,4.3539 83.4591,6.4316 82.4413,9.1881 81.2118,12.4536 79.8123,16.1434 76.7162,24.0737 73.6628,31.8769 70.7367,39.256 69.1254,43.4119 69.2103,43.3695 70.9914,43.1999 73.3236,42.9455 74.5113,42.8606 75.6984,42.7758 76.8861,42.7758 77.2678,42.8182 77.6495,42.903 78.0736,42.9878 78.4553,43.1151 78.7945,43.2847 79.0914,43.454 79.3459,43.6663 79.5577,43.9208 79.7699,44.2177 79.9393,44.5569 80.0241,44.9386 80.0668,45.3203 80.0668,45.7019 79.9817,46.2108 79.8548,46.6774 79.6849,47.1439 79.4306,47.5679 79.2607,47.9072 79.049,48.2041 78.7945,48.4585 78.5399,48.6706 78.2856,48.9246 77.9888,49.137 77.395,49.5187 76.8011,49.9428 76.5469,50.1548 76.25,50.4093 75.6984,50.9182 75.1898,51.4271 74.7231,52.0208 74.2566,52.5721 73.5781,53.4203 72.942,54.3108 72.306,55.2014 71.6275,56.0496 71.3307,56.4737 71.0338,56.8553 70.6943,57.2367 70.3129,57.5763 69.5919,58.2123 68.7862,58.806 68.0652,59.2725 67.3016,59.6542 66.5383,60.0359 65.7328,60.3752 64.927,60.672 64.121,60.9264 63.2729,61.1385 62.4674,61.3081 62.2126,61.3505 61.7889,62.4956 61.1524,64.3191 59.2444,69.6201 53.9433,84.5058 44.5287,111.0529 43.8499,113.0034 43.6805,113.5122 43.426,114.1064 43.2561,114.6153 43.0443,114.9542 42.8321,115.2518 42.6203,115.4206 42.4082,115.5907 42.1536,115.7604 41.8993,115.8872 41.6449,115.9723 41.3902,116.0144 41.0933,116.0572 40.8391,116.0144 40.5847,116.0144 40.3299,115.9303 40.0755,115.8452 39.8637,115.7176 39.6515,115.6327 39.4821,115.4635 39.1429,115.1667 38.8881,114.9121 38.676,114.6153 38.4643,114.3185 38.252,114.0636 37.531,113.2155 36.7677,112.4521 36.1315,111.8584 35.4954,111.3075 34.181,110.2474 33.5025,109.611 32.824,108.9746 32.2301,108.254 31.6789,107.5328 31.4245,107.1091 31.2548,106.685 31.2122,106.4304 31.1275,106.1336 31.1275,105.8369 31.0853,105.582 31.1699,105.0307 31.2972,104.5218 31.4667,103.9704 31.594,103.4194 31.6365,103.2498 31.7638,102.8682 32.1455,101.638 33.4176,97.6519 37.3617,85.6929 41.5174,73.0972 43.1289,68.3055 43.7229,66.5667 44.1046,65.4217 32.6542,67.9238 26.1235,69.3233 22.5187,70.1287 21.713,72.3339 20.1015,76.6595 15.5636,89.0856 8.9479,106.939 8.6088,107.7024 8.227,108.4237 7.8454,109.0175 7.4214,109.5691 6.9125,110.0777 6.3612,110.5441 5.9371,110.7562 5.6824,110.9259 5.4282,111.0951 5.1314,111.1798 4.8344,111.2648 4.1984,111.2648 3.9013,111.2226 3.562,111.1378 3.2654,111.011 3.0109,110.883 2.7565,110.7134 2.5018,110.5013 2.2475,110.2045 2.078,109.8656 1.9507,109.526 1.8658,109.1871 1.7809,108.8478 1.7809,108.4658 1.7387,107.7453 1.8234,107.0668 1.9082,106.4725 2.0355,105.9215 2.2051,105.3703 2.3748,104.7766 3.8591,100.5358 5.5978,95.5316 9.4995,84.7595 12.8072,75.5994 14.4188,71.2316 14.3763,71.2316 13.4431,71.062 12.5528,70.8076 12.1285,70.6379 11.7045,70.468 11.2805,70.2562 10.8565,70.0442 10.1779,69.5777 9.5419,69.0685 9.0329,68.6023 8.5239,68.1359 8.0999,67.627 7.6759,67.1181 6.8275,66.1427 6.2339,65.4642 5.7249,64.9128 5.4706,64.616 5.1737,64.4039 4.9193,64.1919 4.6221,64.0222 4.2408,63.8526 3.8166,63.683 3.3926,63.5558 2.9684,63.3861 2.5869,63.2589 2.2051,63.0469 1.8234,62.8348 1.4841,62.5376 1.0602,62.0291 0.6785,61.4774 0.5088,61.3081 0.3814,61.0537 0.2544,60.8416 0.1271,60.5868 0.0847,60.3327 0.0422,60.0359 -0,59.7814 0.0422,59.5267 0.0847,59.2725 0.1271,59.0604 0.2544,58.806 0.3814,58.594 0.5088,58.3819 0.7207,58.2123 0.9329,58.0852 1.1873,57.9155 1.4414,57.8308 1.9507,57.5763 2.3748,57.4063 2.8411,57.2367 5.3432,56.516 7.8027,55.7952 8.8631,55.4982 12.0438,54.6501 15.2244,53.802 18.4474,52.9958 21.628,52.1904 21.713,52.148 22.4339,50.3669 23.6213,47.3559 27.0564,38.6622 35.3261,18.009 39.8214,6.8132 39.8214,6.7709 39.9062,6.5588 40.2879,5.8379 40.6271,5.1593 41.0509,4.5232 41.475,3.8871 41.8143,3.5058 42.1111,3.1662 42.4504,2.8269 42.8321,2.5301 43.1714,2.2756 43.5954,2.0635 43.9771,1.8515 44.4438,1.7242 44.868,1.597 45.3342,1.5549 45.7582,1.5549 46.1826,1.6395 46.5643,1.7667 46.9459,1.9787 47.2852,2.2756 47.4122,2.4455 47.5821,2.6152 47.7093,2.9965 47.8362,3.3358 47.8787,3.7175 47.9214,4.0991 47.9214,4.5232 47.8362,4.9473 47.7938,5.3714 47.6669,5.7954 47.5821,6.1347 47.2852,7.1102 46.8611,8.1703 43.8922,15.6345 38.8881,28.1874 33.7144,41.2491 31.594,46.5078 30.1946,50.1548 "/>
   <polygon class="fil0" points="75.2322,85.8626 75.9108,85.2267 76.3349,84.845 76.7162,84.5058 77.1828,84.2087 77.6495,83.9116 78.0736,83.7421 78.4974,83.5725 78.8791,83.5302 79.2607,83.5302 79.4731,83.5725 79.6849,83.6572 79.8969,83.7421 80.0668,83.8269 80.2362,83.9966 80.4061,84.1241 80.5333,84.2933 80.6602,84.4634 80.7877,84.6751 80.8301,85.0144 80.915,85.3112 80.915,85.9473 80.8726,86.3714 80.7451,86.7954 80.6178,87.2196 80.4909,87.6013 80.0241,88.5342 79.4731,89.4252 78.7945,90.4002 78.1157,91.3756 77.395,92.2665 78.2429,94.5562 78.4553,95.1924 78.5399,95.5739 78.6673,95.9556 78.7098,96.3374 78.7521,96.7191 78.7521,97.0158 78.7098,97.2702 78.6246,97.6096 78.4974,97.9068 78.3281,98.161 78.1157,98.373 77.9037,98.5001 77.7343,98.6277 77.5221,98.7122 77.3103,98.7546 77.0979,98.7971 76.8861,98.8395 76.6742,98.7971 76.4194,98.7971 76.1653,98.6698 75.9108,98.5425 75.6561,98.373 75.444,98.2034 75.2747,98.0337 75.0623,97.8216 74.9351,97.6096 74.5959,97.0582 74.3414,96.5073 74.0872,95.8709 73.5356,96.295 72.9846,96.7191 72.4333,97.1431 71.8393,97.5249 71.2459,97.864 70.6097,98.161 69.9736,98.4154 69.3372,98.6277 68.5738,98.7971 67.8108,98.8819 67.1323,98.8819 66.4959,98.7971 65.8598,98.6694 65.2239,98.5001 64.5878,98.2458 64.0362,97.9068 63.4852,97.5673 62.976,97.1431 62.7642,96.8886 62.5097,96.6339 62.0857,96.1253 61.704,95.5736 61.4072,94.9378 61.2373,94.5135 61.1103,94.0896 60.983,93.666 60.8556,93.1991 60.8131,92.7326 60.7711,92.2662 60.7286,91.3756 60.7711,90.4423 60.8556,89.9757 60.9404,89.552 61.1524,88.6615 61.4496,87.7706 61.704,87.1768 62.0006,86.5411 62.3398,85.9469 62.7215,85.3533 63.1035,84.8024 63.4852,84.2509 63.9092,83.6994 64.3754,83.1908 65.4781,81.9606 66.9199,80.3918 68.3619,78.8651 68.0226,77.7201 67.7684,76.7872 67.4715,75.8542 67.2169,74.8363 67.0475,73.8185 66.9624,73.2249 66.9199,72.5887 66.9624,71.9522 67.0898,71.3165 67.2592,70.6804 67.4715,70.0442 67.7684,69.4929 68.1076,68.9416 68.4893,68.4327 68.7437,68.1359 69.0404,67.8386 69.3372,67.5845 69.6765,67.3301 70.1005,67.0332 70.5674,66.8212 71.0338,66.6092 71.5,66.4395 72.0092,66.3123 72.5178,66.185 73.0694,66.1427 73.5781,66.1427 74.2566,66.185 74.9776,66.3547 75.6561,66.5667 76.2925,66.8636 76.8861,67.2453 77.4796,67.7117 77.9464,68.2206 78.1582,68.4751 78.3705,68.772 78.5822,69.1112 78.7521,69.4505 78.8791,69.8322 78.9639,70.2138 79.049,70.7651 79.0914,71.2737 79.0914,71.8254 79.049,72.3339 78.9639,72.6308 78.8367,73.1397 78.6673,73.6065 78.4128,74.1999 78.1582,74.7516 77.8613,75.3028 77.5644,75.8542 76.8861,76.9144 76.1226,77.9322 75.6984,78.5258 74.6806,79.7557 73.7055,81.0281 "/>
   <polygon class="fil1" points="71.9668,75.2601 71.7969,74.7939 71.6699,74.3274 71.6275,74.0306 71.5425,73.5641 71.5,73.1824 71.5,72.3767 71.5425,71.995 71.6275,71.7405 71.7124,71.4437 71.8817,71.1889 72.0516,70.9348 72.306,70.7651 72.5178,70.7227 72.6877,70.6804 72.8571,70.6379 73.0694,70.6379 73.2388,70.6804 73.4087,70.7227 73.5781,70.8076 73.748,70.892 73.8749,71.0193 73.9598,71.1468 74.0448,71.2737 74.1297,71.4437 74.172,71.7829 74.1297,72.1222 74.0872,72.4187 73.9598,72.7156 73.8327,73.0125 73.6628,73.2672 73.4087,73.6489 73.1119,73.9882 "/>
   <polygon class="fil1" points="70.355,85.1415 71.7124,89.1703 70.9914,89.7217 70.2704,90.2305 70.0582,90.4002 69.804,90.5277 69.5919,90.6123 69.3372,90.7395 69.0827,90.8246 68.8286,90.867 68.5318,90.867 68.277,90.8246 68.0226,90.6546 67.8953,90.5699 67.8532,90.4426 67.7259,90.1881 67.7259,89.5096 67.8108,89.1703 67.8953,88.8735 68.0652,88.5342 68.2346,88.195 68.4045,87.8557 68.6163,87.5163 68.8286,87.1772 69.2948,86.5411 69.7613,85.9053 "/>
  </g>
 </g>
</svg>
